<svg viewBox="0 0 200 200" xmlns="http://www.w3.org/2000/svg">
  <path fill="#FB9C46" d="M43.5,-77.7C54.7,-68.8,61,-53.8,66.3,-39.9C71.6,-25.9,76,-12.9,76,0C76.1,13,71.8,26,65.7,38.7C59.7,51.4,51.8,63.7,40.5,70.7C29.3,77.8,14.6,79.5,0.2,79.2C-14.3,78.9,-28.7,76.7,-41.2,70.4C-53.7,64.1,-64.3,53.7,-72.9,41.3C-81.4,28.9,-87.9,14.4,-86.8,0.6C-85.7,-13.2,-77,-26.3,-67.9,-37.8C-58.8,-49.3,-49.3,-59.1,-37.9,-67.8C-26.5,-76.5,-13.3,-84.1,1.4,-86.6C16.1,-89.1,32.3,-86.5,43.5,-77.7Z" transform="translate(100 100)" />
</svg>